<svg xmlns="http://www.w3.org/2000/svg" viewBox="0 0 1717 916" role="img" aria-label="Website preview for a local business">
  <defs>
    <linearGradient id="wall" x1="0" x2="1" y1="0" y2="1">
      <stop offset="0" stop-color="#111314"/>
      <stop offset=".45" stop-color="#272521"/>
      <stop offset="1" stop-color="#72563d"/>
    </linearGradient>
    <linearGradient id="wood" x1="0" x2="1">
      <stop offset="0" stop-color="#3b281e"/>
      <stop offset=".55" stop-color="#8c603c"/>
      <stop offset="1" stop-color="#4d3425"/>
    </linearGradient>
    <linearGradient id="screen" x1="0" x2="1" y1="0" y2="1">
      <stop offset="0" stop-color="#f8f5ee"/>
      <stop offset="1" stop-color="#d9d0c1"/>
    </linearGradient>
    <filter id="blur" x="-20%" y="-20%" width="140%" height="140%"><feGaussianBlur stdDeviation="14"/></filter>
    <filter id="shadow" x="-20%" y="-20%" width="140%" height="140%"><feDropShadow dx="0" dy="24" stdDeviation="28" flood-color="#000" flood-opacity=".34"/></filter>
  </defs>
  <rect width="1717" height="916" fill="url(#wall)"/>
  <rect y="660" width="1717" height="256" fill="url(#wood)"/>
  <rect y="650" width="1717" height="44" fill="#201611" opacity=".44"/>
  <g opacity=".34" filter="url(#blur)">
    <rect x="1020" y="72" width="280" height="182" rx="14" fill="#d7b17b"/>
    <rect x="1138" y="0" width="220" height="96" rx="48" fill="#f0d194"/>
    <rect x="210" y="160" width="150" height="280" rx="70" fill="#24342e"/>
    <rect x="500" y="130" width="120" height="220" rx="58" fill="#d2b071"/>
    <rect x="1220" y="250" width="290" height="90" rx="45" fill="#63815f"/>
  </g>
  <g opacity=".44">
    <rect x="760" y="88" width="360" height="210" rx="10" fill="#1e211f" stroke="#a68458" stroke-width="8"/>
    <rect x="795" y="124" width="120" height="12" rx="6" fill="#dfd6c9"/>
    <rect x="795" y="156" width="210" height="12" rx="6" fill="#dfd6c9"/>
    <rect x="795" y="188" width="170" height="12" rx="6" fill="#dfd6c9"/>
    <rect x="940" y="124" width="130" height="12" rx="6" fill="#dfd6c9"/>
    <rect x="940" y="156" width="95" height="12" rx="6" fill="#dfd6c9"/>
  </g>
  <g transform="translate(802 308)" filter="url(#shadow)">
    <path d="M50 0h540c28 0 50 22 50 50v330H0V50C0 22 22 0 50 0Z" fill="#111"/>
    <rect x="24" y="24" width="592" height="330" rx="10" fill="url(#screen)"/>
    <rect x="60" y="58" width="520" height="42" fill="#f7f3ea"/>
    <rect x="76" y="76" width="66" height="8" rx="4" fill="#a29078"/>
    <rect x="324" y="76" width="54" height="8" rx="4" fill="#d0c2ad"/>
    <rect x="430" y="76" width="54" height="8" rx="4" fill="#d0c2ad"/>
    <rect x="510" y="76" width="54" height="8" rx="4" fill="#d0c2ad"/>
    <rect x="60" y="122" width="520" height="116" fill="#322e29"/>
    <rect x="306" y="176" width="110" height="6" rx="3" fill="#e8dfd1"/>
    <rect x="336" y="194" width="54" height="24" rx="2" fill="#d5c3ab"/>
    <rect x="60" y="264" width="128" height="74" fill="#c5b9a8"/>
    <rect x="210" y="264" width="128" height="74" fill="#7d5b3f"/>
    <rect x="360" y="264" width="220" height="74" fill="#ddd5c8"/>
    <rect x="78" y="296" width="92" height="6" rx="3" fill="#eee7dc"/>
    <rect x="78" y="314" width="76" height="6" rx="3" fill="#eee7dc"/>
    <path d="M-74 380h790l-70 52H-4Z" fill="#2e2d2b"/>
    <path d="M92 392h450l38 18H54Z" fill="#151515" opacity=".62"/>
  </g>
  <g transform="translate(1298 390)" filter="url(#shadow)">
    <rect x="0" y="0" width="176" height="330" rx="26" fill="#111"/>
    <rect x="12" y="20" width="152" height="290" rx="16" fill="url(#screen)"/>
    <rect x="66" y="11" width="44" height="6" rx="3" fill="#2d2d2d"/>
    <rect x="28" y="40" width="116" height="78" fill="#3d342d"/>
    <rect x="48" y="76" width="74" height="4" rx="2" fill="#eee7dc"/>
    <rect x="66" y="91" width="42" height="18" rx="2" fill="#d5c3ab"/>
    <rect x="28" y="138" width="116" height="52" fill="#d9d1c4"/>
    <rect x="40" y="154" width="86" height="5" rx="2" fill="#77736c"/>
    <rect x="40" y="169" width="72" height="5" rx="2" fill="#77736c"/>
    <rect x="28" y="210" width="116" height="70" fill="#76583f"/>
  </g>
  <g transform="translate(1446 260)" opacity=".9">
    <rect x="68" y="280" width="128" height="86" rx="12" fill="#b7aa96"/>
    <path d="M134 278c-18-82 4-154 58-228" fill="none" stroke="#799065" stroke-width="8" stroke-linecap="round"/>
    <path d="M116 280c-58-62-76-136-52-224" fill="none" stroke="#6e845f" stroke-width="7" stroke-linecap="round"/>
    <ellipse cx="60" cy="52" rx="38" ry="18" fill="#71885f" transform="rotate(-28 60 52)"/>
    <ellipse cx="216" cy="64" rx="44" ry="19" fill="#7e9369" transform="rotate(-26 216 64)"/>
    <ellipse cx="74" cy="140" rx="50" ry="20" fill="#71885f" transform="rotate(32 74 140)"/>
    <ellipse cx="194" cy="156" rx="48" ry="19" fill="#85996d" transform="rotate(-18 194 156)"/>
    <ellipse cx="118" cy="208" rx="44" ry="18" fill="#6e845f" transform="rotate(-18 118 208)"/>
    <ellipse cx="222" cy="236" rx="40" ry="17" fill="#7e9369" transform="rotate(24 222 236)"/>
  </g>
  <rect width="1717" height="916" fill="#000" opacity=".18"/>
</svg>
