<svg xmlns="http://www.w3.org/2000/svg" viewBox="0 0 1200 630" role="img" aria-label="Local Web Studio social preview">
  <defs>
    <linearGradient id="bg" x1="0" x2="1" y1="0" y2="1"><stop offset="0" stop-color="#101010"/><stop offset=".48" stop-color="#2f2c27"/><stop offset="1" stop-color="#805b3d"/></linearGradient>
    <linearGradient id="screen" x1="0" x2="1" y1="0" y2="1"><stop offset="0" stop-color="#faf7f0"/><stop offset="1" stop-color="#d8cfc0"/></linearGradient>
    <filter id="shadow" x="-20%" y="-20%" width="140%" height="140%"><feDropShadow dx="0" dy="20" stdDeviation="24" flood-color="#000" flood-opacity=".35"/></filter>
  </defs>
  <rect width="1200" height="630" fill="url(#bg)"/><rect width="610" height="630" fill="#000" opacity=".56"/>
  <g transform="translate(632 208)" filter="url(#shadow)"><path d="M34 0h378c18 0 34 16 34 34v230H0V34C0 16 16 0 34 0Z" fill="#111"/><rect x="18" y="18" width="410" height="230" rx="8" fill="url(#screen)"/><rect x="44" y="44" width="362" height="30" fill="#f8f4eb"/><rect x="58" y="58" width="50" height="6" rx="3" fill="#a29078"/><rect x="44" y="94" width="362" height="82" fill="#2d2a25"/><rect x="210" y="132" width="74" height="5" rx="2" fill="#e8dfd1"/><rect x="232" y="146" width="38" height="16" fill="#d5c3ab"/><rect x="44" y="196" width="90" height="48" fill="#c5b9a8"/><rect x="150" y="196" width="90" height="48" fill="#7d5b3f"/><rect x="256" y="196" width="150" height="48" fill="#ddd5c8"/><path d="M-52 264h550l-48 36H-4Z" fill="#2e2d2b"/></g>
  <g transform="translate(1012 260)" filter="url(#shadow)"><rect width="126" height="236" rx="22" fill="#111"/><rect x="10" y="16" width="106" height="204" rx="14" fill="url(#screen)"/><rect x="30" y="34" width="66" height="55" fill="#3d342d"/><rect x="30" y="104" width="66" height="42" fill="#d9d1c4"/><rect x="30" y="160" width="66" height="46" fill="#76583f"/></g>
  <text x="64" y="108" fill="#fff" font-family="Arial, Helvetica, sans-serif" font-weight="700" font-size="28">Local Web Studio</text>
  <text x="64" y="218" fill="#fff" font-family="Arial, Helvetica, sans-serif" font-weight="800" font-size="68">Simple Websites</text>
  <text x="64" y="292" fill="#fff" font-family="Arial, Helvetica, sans-serif" font-weight="800" font-size="68">for Local</text>
  <text x="64" y="366" fill="#fff" font-family="Arial, Helvetica, sans-serif" font-weight="800" font-size="68">Businesses</text>
  <text x="64" y="492" fill="#eee7dc" font-family="Arial, Helvetica, sans-serif" font-size="31">Mobile-friendly pages for restaurants,</text>
  <text x="64" y="536" fill="#eee7dc" font-family="Arial, Helvetica, sans-serif" font-size="31">salons, bars, and wellness businesses.</text>
</svg>
